<svg xmlns="http://www.w3.org/2000/svg" xmlns:xlink="http://www.w3.org/1999/xlink" width="500" zoomAndPan="magnify" viewBox="0 0 375 374.999991" height="500" preserveAspectRatio="xMidYMid meet" version="1.0"><defs><g/><clipPath id="6ec7d5713d"><path d="M 193.457031 85 L 323.207031 85 L 323.207031 234.804688 L 193.457031 234.804688 Z M 193.457031 85 " clip-rule="nonzero"/></clipPath></defs><rect x="-37.5" width="450" fill="#ffffff" y="-37.499999" height="449.999989" fill-opacity="1"/><rect x="-37.5" width="450" fill="#ffffff" y="-37.499999" height="449.999989" fill-opacity="1"/><rect x="-37.5" width="450" fill="#292e57" y="-37.499999" height="449.999989" fill-opacity="1"/><g clip-path="url(#6ec7d5713d)"><path fill="#ffffff" d="M 193.457031 124.113281 L 219.398438 103.164062 L 219.398438 213.332031 L 193.457031 234.238281 Z M 245.359375 124.113281 L 245.359375 138.121094 L 271.300781 159.066406 L 271.300781 85.375 L 245.359375 106.320312 Z M 297.246094 132.660156 L 297.246094 165.636719 L 323.207031 185.5625 L 323.207031 111.753906 Z M 297.246094 132.660156 " fill-opacity="1" fill-rule="nonzero"/></g><path fill="#8c52ff" d="M 219.398438 103.191406 L 245.359375 124.136719 L 245.359375 138.144531 L 219.398438 159.09375 Z M 271.300781 85.375 L 271.300781 187.984375 L 297.246094 165.636719 L 297.246094 106.320312 Z M 227.613281 177.839844 L 232.378906 177.839844 L 232.378906 169.160156 L 227.613281 169.160156 Z M 249.601562 164.628906 L 254.367188 164.628906 L 254.367188 155.976562 L 249.601562 155.976562 Z M 249.601562 189.152344 L 249.601562 192.320312 L 254.367188 192.320312 L 254.367188 183.664062 L 249.601562 183.664062 Z M 249.601562 189.152344 " fill-opacity="1" fill-rule="nonzero"/><g fill="#ffffff" fill-opacity="1"><g transform="translate(39.280511, 162.110087)"><g><path d="M 16.046875 -14.703125 C 16.046875 -12.773438 15.335938 -11.316406 13.921875 -10.328125 C 12.515625 -9.335938 10.601562 -8.84375 8.1875 -8.84375 L 5.609375 -8.84375 L 5.609375 0 L 2.703125 0 L 2.703125 -19.859375 L 9.15625 -19.859375 C 11.175781 -19.859375 12.828125 -19.394531 14.109375 -18.46875 C 15.398438 -17.550781 16.046875 -16.296875 16.046875 -14.703125 Z M 5.609375 -9.71875 L 8.28125 -9.71875 C 9.21875 -9.71875 10.019531 -9.894531 10.6875 -10.25 C 11.363281 -10.613281 11.851562 -11.078125 12.15625 -11.640625 C 12.6875 -12.640625 12.953125 -13.609375 12.953125 -14.546875 C 12.953125 -15.003906 12.832031 -15.554688 12.59375 -16.203125 C 12.113281 -17.523438 11.125 -18.382812 9.625 -18.78125 C 8.1875 -18.78125 6.847656 -18.609375 5.609375 -18.265625 Z M 5.609375 -9.71875 "/></g></g></g><g fill="#ffffff" fill-opacity="1"><g transform="translate(55.660496, 162.110087)"><g><path d="M 5.640625 -9.484375 L 5.640625 0 L 2.703125 0 L 2.703125 -19.859375 L 9.1875 -19.859375 C 11.195312 -19.859375 12.847656 -19.40625 14.140625 -18.5 C 15.429688 -17.601562 16.078125 -16.421875 16.078125 -14.953125 C 16.078125 -13.484375 15.5625 -12.320312 14.53125 -11.46875 C 13.5 -10.625 12.101562 -10.039062 10.34375 -9.71875 L 18.390625 0 L 14.90625 0.421875 L 7.953125 -9.484375 Z M 5.640625 -10.375 L 7.5625 -10.375 C 11.15625 -10.375 12.953125 -11.796875 12.953125 -14.640625 C 12.953125 -15.117188 12.832031 -15.660156 12.59375 -16.265625 C 12.132812 -17.523438 11.15625 -18.351562 9.65625 -18.75 C 8.300781 -18.75 6.960938 -18.578125 5.640625 -18.234375 Z M 5.640625 -10.375 "/></g></g></g><g fill="#ffffff" fill-opacity="1"><g transform="translate(74.800475, 162.110087)"><g><path d="M 11.734375 -20.21875 C 14.328125 -20.21875 16.472656 -19.363281 18.171875 -17.65625 C 19.878906 -15.945312 20.734375 -13.570312 20.734375 -10.53125 C 20.734375 -8.570312 20.390625 -6.859375 19.703125 -5.390625 C 19.023438 -3.921875 18.140625 -2.785156 17.046875 -1.984375 C 14.898438 -0.421875 12.535156 0.359375 9.953125 0.359375 C 7.378906 0.359375 5.242188 -0.503906 3.546875 -2.234375 C 1.859375 -3.960938 1.015625 -6.347656 1.015625 -9.390625 C 1.015625 -10.972656 1.238281 -12.394531 1.6875 -13.65625 C 2.144531 -14.925781 2.738281 -15.960938 3.46875 -16.765625 C 4.195312 -17.566406 5.039062 -18.238281 6 -18.78125 C 7.757812 -19.738281 9.671875 -20.21875 11.734375 -20.21875 Z M 5.703125 -3.421875 C 6.222656 -2.535156 6.921875 -1.847656 7.796875 -1.359375 C 8.679688 -0.867188 9.695312 -0.625 10.84375 -0.625 C 11.988281 -0.625 13.007812 -0.914062 13.90625 -1.5 C 14.8125 -2.082031 15.515625 -2.84375 16.015625 -3.78125 C 17.035156 -5.65625 17.546875 -7.675781 17.546875 -9.84375 C 17.546875 -12.5 17.015625 -14.640625 15.953125 -16.265625 C 14.773438 -18.078125 12.828125 -18.984375 10.109375 -18.984375 C 8.171875 -18.304688 6.703125 -17.132812 5.703125 -15.46875 C 4.703125 -13.8125 4.203125 -11.9375 4.203125 -9.84375 C 4.203125 -7.28125 4.703125 -5.140625 5.703125 -3.421875 Z M 5.703125 -3.421875 "/></g></g></g><g fill="#ffffff" fill-opacity="1"><g transform="translate(96.550451, 162.110087)"><g><path d="M 16.046875 -14.703125 C 16.046875 -12.773438 15.335938 -11.316406 13.921875 -10.328125 C 12.515625 -9.335938 10.601562 -8.84375 8.1875 -8.84375 L 5.609375 -8.84375 L 5.609375 0 L 2.703125 0 L 2.703125 -19.859375 L 9.15625 -19.859375 C 11.175781 -19.859375 12.828125 -19.394531 14.109375 -18.46875 C 15.398438 -17.550781 16.046875 -16.296875 16.046875 -14.703125 Z M 5.609375 -9.71875 L 8.28125 -9.71875 C 9.21875 -9.71875 10.019531 -9.894531 10.6875 -10.25 C 11.363281 -10.613281 11.851562 -11.078125 12.15625 -11.640625 C 12.6875 -12.640625 12.953125 -13.609375 12.953125 -14.546875 C 12.953125 -15.003906 12.832031 -15.554688 12.59375 -16.203125 C 12.113281 -17.523438 11.125 -18.382812 9.625 -18.78125 C 8.1875 -18.78125 6.847656 -18.609375 5.609375 -18.265625 Z M 5.609375 -9.71875 "/></g></g></g><g fill="#ffffff" fill-opacity="1"><g transform="translate(112.930435, 162.110087)"><g><path d="M 2.703125 0 L 2.703125 -19.859375 L 14.734375 -19.859375 L 14.4375 -17.84375 L 8.84375 -18.78125 C 7.863281 -18.78125 6.785156 -18.609375 5.609375 -18.265625 L 5.609375 -10.984375 L 12.265625 -10.984375 L 12.265625 -9.84375 L 5.609375 -9.84375 L 5.609375 -1.078125 L 14.90625 -2.015625 L 14.609375 0 Z M 2.703125 0 "/></g></g></g><g fill="#ffffff" fill-opacity="1"><g transform="translate(129.790419, 162.110087)"><g><path d="M 5.640625 -9.484375 L 5.640625 0 L 2.703125 0 L 2.703125 -19.859375 L 9.1875 -19.859375 C 11.195312 -19.859375 12.847656 -19.40625 14.140625 -18.5 C 15.429688 -17.601562 16.078125 -16.421875 16.078125 -14.953125 C 16.078125 -13.484375 15.5625 -12.320312 14.53125 -11.46875 C 13.5 -10.625 12.101562 -10.039062 10.34375 -9.71875 L 18.390625 0 L 14.90625 0.421875 L 7.953125 -9.484375 Z M 5.640625 -10.375 L 7.5625 -10.375 C 11.15625 -10.375 12.953125 -11.796875 12.953125 -14.640625 C 12.953125 -15.117188 12.832031 -15.660156 12.59375 -16.265625 C 12.132812 -17.523438 11.15625 -18.351562 9.65625 -18.75 C 8.300781 -18.75 6.960938 -18.578125 5.640625 -18.234375 Z M 5.640625 -10.375 "/></g></g></g><g fill="#ffffff" fill-opacity="1"><g transform="translate(148.930398, 162.110087)"><g><path d="M 9.484375 0 L 6.5625 0 L 6.5625 -18.421875 C 5.882812 -18.578125 5.207031 -18.65625 4.53125 -18.65625 L 0.484375 -17.734375 L 0.296875 -19.859375 L 15.75 -19.859375 L 15.59375 -17.734375 L 11.515625 -18.65625 C 10.835938 -18.65625 10.160156 -18.578125 9.484375 -18.421875 Z M 9.484375 0 "/></g></g></g><g fill="#ffffff" fill-opacity="1"><g transform="translate(164.980382, 162.110087)"><g><path d="M 10.296875 0 L 7.375 0 L 7.375 -7.375 L 0.59375 -19.859375 L 3.875 -19.859375 L 9.421875 -8.453125 L 14.609375 -19.859375 L 16.109375 -19.859375 L 10.296875 -7.53125 Z M 10.296875 0 "/></g></g></g><g fill="#ffffff" fill-opacity="1"><g transform="translate(33.022699, 204.110084)"><g><path d="M 17.796875 0.328125 L 17.28125 0.328125 L 4.140625 -16.109375 L 4.015625 -16.109375 L 4.015625 0 L 2.703125 0 L 2.703125 -19.859375 L 4.921875 -19.859375 L 16.34375 -5.4375 L 16.46875 -5.4375 L 16.46875 -19.859375 L 17.796875 -19.859375 Z M 17.796875 0.328125 "/></g></g></g><g fill="#ffffff" fill-opacity="1"><g transform="translate(53.512681, 204.110084)"><g><path d="M 2.703125 0 L 2.703125 -19.859375 L 14.734375 -19.859375 L 14.4375 -17.84375 L 8.84375 -18.78125 C 7.863281 -18.78125 6.785156 -18.609375 5.609375 -18.265625 L 5.609375 -10.984375 L 12.265625 -10.984375 L 12.265625 -9.84375 L 5.609375 -9.84375 L 5.609375 -1.078125 L 14.90625 -2.015625 L 14.609375 0 Z M 2.703125 0 "/></g></g></g><g fill="#ffffff" fill-opacity="1"><g transform="translate(70.372665, 204.110084)"><g><path d="M 9.484375 0 L 6.5625 0 L 6.5625 -18.421875 C 5.882812 -18.578125 5.207031 -18.65625 4.53125 -18.65625 L 0.484375 -17.734375 L 0.296875 -19.859375 L 15.75 -19.859375 L 15.59375 -17.734375 L 11.515625 -18.65625 C 10.835938 -18.65625 10.160156 -18.578125 9.484375 -18.421875 Z M 9.484375 0 "/></g></g></g><g fill="#ffffff" fill-opacity="1"><g transform="translate(86.422648, 204.110084)"><g><path d="M 23.875 -19.859375 L 25.375 -19.859375 L 17.9375 0.453125 L 17.453125 0.453125 L 12.875 -11.84375 L 8.375 0.453125 L 7.890625 0.453125 L 0.296875 -19.859375 L 3.5625 -19.859375 L 8.84375 -3.59375 L 12.203125 -13.625 L 9.875 -19.859375 L 13.140625 -19.859375 L 18.421875 -3.59375 Z M 23.875 -19.859375 "/></g></g></g><g fill="#ffffff" fill-opacity="1"><g transform="translate(112.102627, 204.110084)"><g><path d="M 11.734375 -20.21875 C 14.328125 -20.21875 16.472656 -19.363281 18.171875 -17.65625 C 19.878906 -15.945312 20.734375 -13.570312 20.734375 -10.53125 C 20.734375 -8.570312 20.390625 -6.859375 19.703125 -5.390625 C 19.023438 -3.921875 18.140625 -2.785156 17.046875 -1.984375 C 14.898438 -0.421875 12.535156 0.359375 9.953125 0.359375 C 7.378906 0.359375 5.242188 -0.503906 3.546875 -2.234375 C 1.859375 -3.960938 1.015625 -6.347656 1.015625 -9.390625 C 1.015625 -10.972656 1.238281 -12.394531 1.6875 -13.65625 C 2.144531 -14.925781 2.738281 -15.960938 3.46875 -16.765625 C 4.195312 -17.566406 5.039062 -18.238281 6 -18.78125 C 7.757812 -19.738281 9.671875 -20.21875 11.734375 -20.21875 Z M 5.703125 -3.421875 C 6.222656 -2.535156 6.921875 -1.847656 7.796875 -1.359375 C 8.679688 -0.867188 9.695312 -0.625 10.84375 -0.625 C 11.988281 -0.625 13.007812 -0.914062 13.90625 -1.5 C 14.8125 -2.082031 15.515625 -2.84375 16.015625 -3.78125 C 17.035156 -5.65625 17.546875 -7.675781 17.546875 -9.84375 C 17.546875 -12.5 17.015625 -14.640625 15.953125 -16.265625 C 14.773438 -18.078125 12.828125 -18.984375 10.109375 -18.984375 C 8.171875 -18.304688 6.703125 -17.132812 5.703125 -15.46875 C 4.703125 -13.8125 4.203125 -11.9375 4.203125 -9.84375 C 4.203125 -7.28125 4.703125 -5.140625 5.703125 -3.421875 Z M 5.703125 -3.421875 "/></g></g></g><g fill="#ffffff" fill-opacity="1"><g transform="translate(133.852603, 204.110084)"><g><path d="M 5.640625 -9.484375 L 5.640625 0 L 2.703125 0 L 2.703125 -19.859375 L 9.1875 -19.859375 C 11.195312 -19.859375 12.847656 -19.40625 14.140625 -18.5 C 15.429688 -17.601562 16.078125 -16.421875 16.078125 -14.953125 C 16.078125 -13.484375 15.5625 -12.320312 14.53125 -11.46875 C 13.5 -10.625 12.101562 -10.039062 10.34375 -9.71875 L 18.390625 0 L 14.90625 0.421875 L 7.953125 -9.484375 Z M 5.640625 -10.375 L 7.5625 -10.375 C 11.15625 -10.375 12.953125 -11.796875 12.953125 -14.640625 C 12.953125 -15.117188 12.832031 -15.660156 12.59375 -16.265625 C 12.132812 -17.523438 11.15625 -18.351562 9.65625 -18.75 C 8.300781 -18.75 6.960938 -18.578125 5.640625 -18.234375 Z M 5.640625 -10.375 "/></g></g></g><g fill="#ffffff" fill-opacity="1"><g transform="translate(152.992582, 204.110084)"><g><path d="M 5.765625 0 L 2.703125 0 L 2.703125 -19.859375 L 5.765625 -19.859375 L 5.765625 -10.078125 L 15.03125 -19.859375 L 17.015625 -19.859375 L 7.625 -10.625 L 18.265625 0 L 14.4375 0.390625 L 5.765625 -9.78125 Z M 5.765625 0 "/></g></g></g><g fill="#ffffff" fill-opacity="1"><g transform="translate(171.262558, 204.110084)"><g><path d="M 4.859375 -16.40625 C 4.859375 -15.53125 5.203125 -14.71875 5.890625 -13.96875 C 6.585938 -13.21875 7.429688 -12.554688 8.421875 -11.984375 C 9.410156 -11.410156 10.394531 -10.828125 11.375 -10.234375 C 12.351562 -9.648438 13.1875 -8.925781 13.875 -8.0625 C 14.5625 -7.207031 14.90625 -6.257812 14.90625 -5.21875 C 14.90625 -3.582031 14.300781 -2.242188 13.09375 -1.203125 C 11.882812 -0.160156 10.25 0.359375 8.1875 0.359375 C 6.125 0.359375 4.082031 -0.03125 2.0625 -0.8125 L 2.0625 -2.21875 C 4.101562 -1.195312 5.835938 -0.6875 7.265625 -0.6875 C 8.703125 -0.6875 9.816406 -1.035156 10.609375 -1.734375 C 11.410156 -2.441406 11.8125 -3.414062 11.8125 -4.65625 C 11.8125 -5.488281 11.484375 -6.25 10.828125 -6.9375 C 10.171875 -7.632812 9.367188 -8.238281 8.421875 -8.75 C 7.484375 -9.257812 6.546875 -9.78125 5.609375 -10.3125 C 4.671875 -10.851562 3.867188 -11.539062 3.203125 -12.375 C 2.546875 -13.207031 2.21875 -14.210938 2.21875 -15.390625 C 2.21875 -16.566406 2.742188 -17.664062 3.796875 -18.6875 C 4.847656 -19.707031 6.410156 -20.21875 8.484375 -20.21875 C 9.847656 -20.21875 11.570312 -19.910156 13.65625 -19.296875 L 13.34375 -17.25 C 10.644531 -18.40625 8.335938 -18.984375 6.421875 -18.984375 C 5.378906 -18.484375 4.859375 -17.625 4.859375 -16.40625 Z M 4.859375 -16.40625 "/></g></g></g></svg>